<svg xmlns="http://www.w3.org/2000/svg" viewBox="0 0 77.07 72.21"><defs><style>.cls-1{fill:#656772;}.cls-2{fill:#c41a2b;}</style></defs><title>Asset 1</title><g id="Layer_2" data-name="Layer 2"><g id="Layer_1-2" data-name="Layer 1"><path class="cls-1" d="M77.07,14S70.88,39.93,58.21,46.42c0,0-14.15,10.61-27.7,2.65,0,0-8.25-3.83,1.77-24.46,0,0,9.87,25.49,32,8.4C64.25,33,75.45,22.1,77.07,14Z"/><path class="cls-2" d="M36.54,20V4.72L31.83,0,25.93.59S23.28,14.15,10.61,10.9L6.19,14.44S12.67,26.82,0,33.89v5s11.79,5,6.78,19.16l2.95,3.83s14.74-5.6,18.86,9.43l5.6.88s4.72-11.49,18.57-4.42l4.72-2.06.88-8.55s5.3-3.83,7.07-12.38c0,0-22.4,22.1-40.38,4.72,0,0-7.07-6.48-5.6-15.33C19.45,34.19,19.75,19.75,36.54,20Z"/><circle class="cls-1" cx="54.74" cy="24.68" r="8.77"/></g></g></svg>