<svg xmlns="http://www.w3.org/2000/svg" viewBox="0 0 87.44 97.28"><defs><style>.cls-1{fill:#c1001c;}</style></defs><title>Asset 2</title><g id="Layer_2" data-name="Layer 2"><g id="Layer_1-2" data-name="Layer 1"><path class="cls-1" d="M73.19,59.27,87.44,79.33l-9.26,8.11-11-8.11-9.84,4.05-3.48,13.9h-11l-2.32-13.9L30.11,79.91,17.95,87.44,9.84,78.17l8.11-11L14.48,57.9,0,54.43V42.27L13.32,40l4.63-10.42L9.84,17.95l8.69-8.11,12.16,8.11,8.69-3.47L42.27,0H55l-.08,23.73a24.6,24.6,0,0,0-4.19-.36,25,25,0,1,0,22.46,35.9Z"/><path class="cls-1" d="M52.58,37.51a11,11,0,1,1-1.85-.16A10.82,10.82,0,0,1,52.58,37.51Z"/></g></g></svg>