<svg xmlns="http://www.w3.org/2000/svg" viewBox="0 0 715.6 142.87"><defs><style>.cls-1{fill:#b7000e;}</style></defs><title>Asset 3</title><g id="Layer_2" data-name="Layer 2"><g id="Layer_1-2" data-name="Layer 1"><path class="cls-1" d="M107.5,87l20.92,29.46-13.61,11.91L98.65,116.51l-14.46,5.95-5.1,20.41H62.93l-3.4-20.41-15.31-5.1L26.36,128.42,14.46,114.81,26.36,98.65,21.26,85,0,79.94V62.08l19.56-3.4,6.8-15.31-11.91-17L27.21,14.46,45.07,26.36l12.76-5.1L62.08,0H80.79l-.11,34.85a36.12,36.12,0,0,0-6.16-.52A36.67,36.67,0,1,0,107.5,87Z"/><path class="cls-1" d="M77.23,55.09a16.13,16.13,0,1,1-2.71-.23A15.89,15.89,0,0,1,77.23,55.09Z"/><path class="cls-1" d="M240.6,28.87v19h-23v67h-24v-67h-23v-19Z"/><path class="cls-1" d="M302,99.87H272.2l-4.63,14H242.3l31.23-85H300.9l31.11,85H306.61Zm-5.64-18-9.19-27.82-9.31,27.82Z"/><path class="cls-1" d="M363.6,47.87v14h27v18h-27v15h31v20h-55v-86h55v19Z"/><path class="cls-1" d="M525.34,28.87l-20,86H475.66l-11.9-53.08-11.9,53.08H422.21l-20-86h25.75l9.47,58.55,13.24-58.55h26.12l13.36,58.55,9.47-58.55Z"/><path class="cls-1" d="M598.69,33.15a41,41,0,0,1,15.73,15.66,44.74,44.74,0,0,1,5.75,22.62,44.35,44.35,0,0,1-5.81,22.62,41.47,41.47,0,0,1-15.79,15.66,45.78,45.78,0,0,1-44,0,41.34,41.34,0,0,1-15.85-15.66,44.34,44.34,0,0,1-5.81-22.62,44.36,44.36,0,0,1,5.81-22.62A41.34,41.34,0,0,1,554.6,33.15a46,46,0,0,1,44.09,0ZM562.34,55.41q-5.2,5.87-5.2,16,0,9.92,5.2,15.85t14.27,5.93q9,0,14.15-5.93T596,71.44q0-10.16-5.14-16t-14.21-5.87Q567.54,49.54,562.34,55.41Z"/><path class="cls-1" d="M694.13,33.15a41,41,0,0,1,15.73,15.66,44.74,44.74,0,0,1,5.75,22.62,44.35,44.35,0,0,1-5.81,22.62A41.47,41.47,0,0,1,694,109.72a45.78,45.78,0,0,1-44,0,41.34,41.34,0,0,1-15.85-15.66,44.34,44.34,0,0,1-5.81-22.62,44.36,44.36,0,0,1,5.81-22.62A41.34,41.34,0,0,1,650,33.15a46,46,0,0,1,44.09,0ZM657.78,55.41q-5.2,5.87-5.2,16,0,9.92,5.2,15.85T672,93.21q9,0,14.15-5.93t5.2-15.85q0-10.16-5.14-16T672,49.54Q663,49.54,657.78,55.41Z"/></g></g></svg>