<svg id="Layer_1" data-name="Layer 1" xmlns="http://www.w3.org/2000/svg" viewBox="0 0 962.92 228.91"><defs><style>.cls-1{fill:#c1001c;}</style></defs><title>Taewoo LP _ Logo Assets</title><path class="cls-1" d="M172.23,139.47l33.51,47.2-21.8,19.07-25.89-19.07-23.16,9.53-8.18,32.71H100.83L95.38,196.2,70.85,188,42.24,205.75l-19.07-21.8,19.07-25.89-8.17-21.8L0,128.08V99.47L31.34,94l10.9-24.53L23.16,42.24,43.6,23.16,72.22,42.24l20.44-8.17L99.47,0h30l-.18,55.83a57.88,57.88,0,0,0-9.87-.84,58.76,58.76,0,1,0,52.84,84.48Z"/><path class="cls-1" d="M123.73,88.27a25.85,25.85,0,1,1-4.34-.37A25.47,25.47,0,0,1,123.73,88.27Z"/><path class="cls-1" d="M321.75,52.64V75.21H297.64v68.22H269.17V75.21H245.32V52.64Z"/><path class="cls-1" d="M382.53,129.71H352.27l-4.49,13.72H317.9l33.21-90.79h32.83L417,143.43H387Zm-6.92-21.42L367.4,83l-8.21,25.26Z"/><path class="cls-1" d="M446.78,75.21V86.49H475v21.42H446.78v12.82h32.06v22.7H418.31V52.64h60.53V75.21Z"/><path class="cls-1" d="M615.28,52.64,594.5,143.43H559.11L548.59,91.88l-10.52,51.55H502.69L481.91,52.64h30.65l8.21,57.19,12.31-57.19h31l12.31,57.19,8.21-57.19Z"/><path class="cls-1" d="M688.11,57.06A44.31,44.31,0,0,1,705,73.67a46.65,46.65,0,0,1,6.22,24,46.64,46.64,0,0,1-6.22,24A44.65,44.65,0,0,1,688,138.3a48.7,48.7,0,0,1-46.93,0,45.1,45.1,0,0,1-17-16.67,46.26,46.26,0,0,1-6.28-24,46.28,46.28,0,0,1,6.28-24,44.63,44.63,0,0,1,17-16.61,49.28,49.28,0,0,1,47,0ZM651.44,82.84q-4.62,5.45-4.62,14.81t4.62,14.68q4.62,5.45,13.21,5.45t13.08-5.45q4.62-5.45,4.62-14.68t-4.62-14.81q-4.62-5.45-13.08-5.45T651.44,82.84Z"/><path class="cls-1" d="M784,57.06a44.32,44.32,0,0,1,16.86,16.61,46.67,46.67,0,0,1,6.22,24,46.66,46.66,0,0,1-6.22,24A44.66,44.66,0,0,1,784,138.3a48.7,48.7,0,0,1-46.93,0,45.1,45.1,0,0,1-17-16.67,46.26,46.26,0,0,1-6.28-24,46.28,46.28,0,0,1,6.28-24,44.63,44.63,0,0,1,17-16.61,49.28,49.28,0,0,1,47,0ZM747.35,82.84q-4.62,5.45-4.62,14.81t4.62,14.68q4.62,5.45,13.21,5.45t13.08-5.45q4.62-5.45,4.62-14.68t-4.62-14.81q-4.62-5.45-13.08-5.45T747.35,82.84Z"/><path class="cls-1" d="M857.38,121.89h27.44v21.54H828.91V52.64h28.47Z"/><path class="cls-1" d="M917.14,114.58v28.85H888.67V52.64h39.75q16.67,0,25.58,8.46t8.91,22.7a31,31,0,0,1-4,15.58,28.32,28.32,0,0,1-11.73,11.09q-7.76,4.1-18.79,4.1ZM934.06,83.8q0-8.33-8.85-8.34h-8.08V92.14h8.08Q934.06,92.14,934.06,83.8Z"/></svg>